<?xml version="1.0" encoding="utf-8"?>
<svg version="1.1" xmlns:xlink="http://www.w3.org/1999/xlink" width="25px" height="30px" xmlns="http://www.w3.org/2000/svg">
  <defs>
    <pattern id="BGPattern" patternUnits="userSpaceOnUse" alignment="0 0" imageRepeat="None" />
    <mask fill="white" id="Clip6">
      <path d="M 0 30  L 0 0  L 25 0  L 25 30  L 0 30  Z " fill-rule="evenodd" />
    </mask>
  </defs>
  <g transform="matrix(1 0 0 1 -1177 -276 )">
    <path d="M 0 30  L 0 0  L 25 0  L 25 30  L 0 30  Z " fill-rule="nonzero" fill="rgba(242, 242, 242, 1)" stroke="none" transform="matrix(1 0 0 1 1177 276 )" class="fill" />
    <path d="M 0 30  L 0 0  L 25 0  L 25 30  L 0 30  Z " stroke-width="2" stroke-dasharray="0" stroke="rgba(121, 121, 121, 1)" fill="none" transform="matrix(1 0 0 1 1177 276 )" class="stroke" mask="url(#Clip6)" />
    <path d="M 24.61588936020131 0.46093276775842545  L 0.38411063979868787 29.539067232241575  M 0.38411063979868787 0.46093276775842545  L 24.61588936020131 29.539067232241575  " stroke-width="1" stroke-dasharray="0" stroke="rgba(121, 121, 121, 1)" fill="none" transform="matrix(1 0 0 1 1177 276 )" class="stroke" />
  </g>
</svg>