<?xml version="1.0" encoding="utf-8"?>
<svg version="1.1" xmlns:xlink="http://www.w3.org/1999/xlink" width="32px" height="38px" xmlns="http://www.w3.org/2000/svg">
  <defs>
    <pattern id="BGPattern" patternUnits="userSpaceOnUse" alignment="0 0" imageRepeat="None" />
    <mask fill="white" id="Clip7">
      <path d="M 0 38  L 0 0  L 32 0  L 32 38  L 0 38  Z " fill-rule="evenodd" />
    </mask>
  </defs>
  <g transform="matrix(1 0 0 1 -1073 -387 )">
    <path d="M 0 38  L 0 0  L 32 0  L 32 38  L 0 38  Z " fill-rule="nonzero" fill="rgba(242, 242, 242, 1)" stroke="none" transform="matrix(1 0 0 1 1073 387 )" class="fill" />
    <path d="M 0 38  L 0 0  L 32 0  L 32 38  L 0 38  Z " stroke-width="2" stroke-dasharray="0" stroke="rgba(121, 121, 121, 1)" fill="none" transform="matrix(1 0 0 1 1073 387 )" class="stroke" mask="url(#Clip7)" />
    <path d="M 31.617544400941476 0.45416602388199895  L 0.38245559905852544 37.545833976118004  M 0.38245559905852544 0.45416602388199895  L 31.617544400941476 37.545833976118004  " stroke-width="1" stroke-dasharray="0" stroke="rgba(121, 121, 121, 1)" fill="none" transform="matrix(1 0 0 1 1073 387 )" class="stroke" />
  </g>
</svg>