<?xml version="1.0" encoding="utf-8"?>
<svg version="1.1" xmlns:xlink="http://www.w3.org/1999/xlink" width="24px" height="22px" xmlns="http://www.w3.org/2000/svg">
  <defs>
    <pattern id="BGPattern" patternUnits="userSpaceOnUse" alignment="0 0" imageRepeat="None" />
    <mask fill="white" id="Clip4">
      <path d="M 18.1875 19.89453125  C 18.370192307692307 19.71310763888889  18.461538461538463 19.49826388888889  18.461538461538463 19.25  C 18.461538461538463 19.00173611111111  18.370192307692307 18.78689236111111  18.1875 18.60546875  C 18.004807692307693 18.42404513888889  17.78846153846154 18.333333333333336  17.538461538461537 18.333333333333336  C 17.28846153846154 18.333333333333336  17.072115384615387 18.42404513888889  16.889423076923077 18.60546875  C 16.706730769230774 18.78689236111111  16.615384615384613 19.00173611111111  16.615384615384613 19.25  C 16.615384615384613 19.49826388888889  16.706730769230774 19.71310763888889  16.889423076923077 19.89453125  C 17.072115384615387 20.07595486111111  17.28846153846154 20.166666666666664  17.538461538461537 20.166666666666664  C 17.78846153846154 20.166666666666664  18.004807692307693 20.07595486111111  18.1875 19.89453125  Z M 21.879807692307693 19.89453125  C 22.0625 19.71310763888889  22.153846153846153 19.49826388888889  22.153846153846153 19.25  C 22.153846153846153 19.00173611111111  22.0625 18.78689236111111  21.879807692307693 18.60546875  C 21.697115384615387 18.42404513888889  21.480769230769234 18.333333333333336  21.23076923076923 18.333333333333336  C 20.98076923076923 18.333333333333336  20.76442307692308 18.42404513888889  20.58173076923077 18.60546875  C 20.399038461538463 18.78689236111111  20.307692307692307 19.00173611111111  20.307692307692307 19.25  C 20.307692307692307 19.49826388888889  20.399038461538463 19.71310763888889  20.58173076923077 19.89453125  C 20.76442307692308 20.07595486111111  20.98076923076923 20.166666666666664  21.23076923076923 20.166666666666664  C 21.480769230769234 20.166666666666664  21.697115384615387 20.07595486111111  21.879807692307693 19.89453125  Z M 23.596153846153847 15.067708333333332  C 23.865384615384617 15.335069444444441  24 15.659722222222223  24 16.041666666666668  L 24 20.625  C 24 21.006944444444446  23.865384615384617 21.33159722222222  23.596153846153847 21.598958333333336  C 23.32692307692308 21.866319444444446  23.000000000000004 22  22.615384615384613 22  L 1.3846153846153846 22  C 1 22  0.6730769230769231 21.866319444444446  0.40384615384615385 21.598958333333336  C 0.13461538461538458 21.33159722222222  0 21.006944444444446  0 20.625  L 0 16.041666666666668  C 0 15.659722222222223  0.13461538461538458 15.335069444444441  0.40384615384615385 15.067708333333332  C 0.6730769230769231 14.800347222222223  1 14.666666666666668  1.3846153846153846 14.666666666666668  L 8.091346153846153 14.666666666666668  L 10.038461538461538 16.614583333333336  C 10.596153846153847 17.149305555555554  11.25 17.416666666666664  12 17.416666666666664  C 12.75 17.416666666666664  13.403846153846153 17.149305555555554  13.961538461538463 16.614583333333336  L 15.923076923076923 14.666666666666668  L 22.615384615384613 14.666666666666668  C 23.000000000000004 14.666666666666668  23.32692307692308 14.800347222222223  23.596153846153847 15.067708333333332  Z M 18.461538461538463 7.333333333333334  C 18.865384615384613 7.333333333333334  19.149038461538463 7.51953125  19.3125 7.891927083333334  C 19.47596153846154 8.28342013888889  19.408653846153847 8.617621527777777  19.110576923076923 8.89453125  L 12.649038461538463 15.311197916666668  C 12.475961538461537 15.492621527777777  12.259615384615385 15.583333333333332  12 15.583333333333332  C 11.740384615384615 15.583333333333332  11.524038461538462 15.492621527777777  11.350961538461538 15.311197916666668  L 4.889423076923077 8.89453125  C 4.591346153846154 8.617621527777777  4.524038461538462 8.28342013888889  4.6875 7.891927083333334  C 4.850961538461539 7.51953125  5.134615384615384 7.333333333333334  5.538461538461538 7.333333333333334  L 9.230769230769232 7.333333333333334  L 9.230769230769232 0.9166666666666659  C 9.230769230769232 0.6684027777777748  9.322115384615385 0.4535590277777748  9.504807692307693 0.27213541666666585  C 9.6875 0.09071180555555691  9.903846153846155 0  10.153846153846153 0  L 13.846153846153845 0  C 14.096153846153847 0  14.312500000000002 0.09071180555555691  14.495192307692307 0.27213541666666585  C 14.677884615384617 0.4535590277777748  14.76923076923077 0.6684027777777748  14.76923076923077 0.9166666666666659  L 14.76923076923077 7.333333333333334  L 18.461538461538463 7.333333333333334  Z " fill-rule="evenodd" />
    </mask>
  </defs>
  <g transform="matrix(1 0 0 1 -643 -236 )">
    <path d="M 18.1875 19.89453125  C 18.370192307692307 19.71310763888889  18.461538461538463 19.49826388888889  18.461538461538463 19.25  C 18.461538461538463 19.00173611111111  18.370192307692307 18.78689236111111  18.1875 18.60546875  C 18.004807692307693 18.42404513888889  17.78846153846154 18.333333333333336  17.538461538461537 18.333333333333336  C 17.28846153846154 18.333333333333336  17.072115384615387 18.42404513888889  16.889423076923077 18.60546875  C 16.706730769230774 18.78689236111111  16.615384615384613 19.00173611111111  16.615384615384613 19.25  C 16.615384615384613 19.49826388888889  16.706730769230774 19.71310763888889  16.889423076923077 19.89453125  C 17.072115384615387 20.07595486111111  17.28846153846154 20.166666666666664  17.538461538461537 20.166666666666664  C 17.78846153846154 20.166666666666664  18.004807692307693 20.07595486111111  18.1875 19.89453125  Z M 21.879807692307693 19.89453125  C 22.0625 19.71310763888889  22.153846153846153 19.49826388888889  22.153846153846153 19.25  C 22.153846153846153 19.00173611111111  22.0625 18.78689236111111  21.879807692307693 18.60546875  C 21.697115384615387 18.42404513888889  21.480769230769234 18.333333333333336  21.23076923076923 18.333333333333336  C 20.98076923076923 18.333333333333336  20.76442307692308 18.42404513888889  20.58173076923077 18.60546875  C 20.399038461538463 18.78689236111111  20.307692307692307 19.00173611111111  20.307692307692307 19.25  C 20.307692307692307 19.49826388888889  20.399038461538463 19.71310763888889  20.58173076923077 19.89453125  C 20.76442307692308 20.07595486111111  20.98076923076923 20.166666666666664  21.23076923076923 20.166666666666664  C 21.480769230769234 20.166666666666664  21.697115384615387 20.07595486111111  21.879807692307693 19.89453125  Z M 23.596153846153847 15.067708333333332  C 23.865384615384617 15.335069444444441  24 15.659722222222223  24 16.041666666666668  L 24 20.625  C 24 21.006944444444446  23.865384615384617 21.33159722222222  23.596153846153847 21.598958333333336  C 23.32692307692308 21.866319444444446  23.000000000000004 22  22.615384615384613 22  L 1.3846153846153846 22  C 1 22  0.6730769230769231 21.866319444444446  0.40384615384615385 21.598958333333336  C 0.13461538461538458 21.33159722222222  0 21.006944444444446  0 20.625  L 0 16.041666666666668  C 0 15.659722222222223  0.13461538461538458 15.335069444444441  0.40384615384615385 15.067708333333332  C 0.6730769230769231 14.800347222222223  1 14.666666666666668  1.3846153846153846 14.666666666666668  L 8.091346153846153 14.666666666666668  L 10.038461538461538 16.614583333333336  C 10.596153846153847 17.149305555555554  11.25 17.416666666666664  12 17.416666666666664  C 12.75 17.416666666666664  13.403846153846153 17.149305555555554  13.961538461538463 16.614583333333336  L 15.923076923076923 14.666666666666668  L 22.615384615384613 14.666666666666668  C 23.000000000000004 14.666666666666668  23.32692307692308 14.800347222222223  23.596153846153847 15.067708333333332  Z M 18.461538461538463 7.333333333333334  C 18.865384615384613 7.333333333333334  19.149038461538463 7.51953125  19.3125 7.891927083333334  C 19.47596153846154 8.28342013888889  19.408653846153847 8.617621527777777  19.110576923076923 8.89453125  L 12.649038461538463 15.311197916666668  C 12.475961538461537 15.492621527777777  12.259615384615385 15.583333333333332  12 15.583333333333332  C 11.740384615384615 15.583333333333332  11.524038461538462 15.492621527777777  11.350961538461538 15.311197916666668  L 4.889423076923077 8.89453125  C 4.591346153846154 8.617621527777777  4.524038461538462 8.28342013888889  4.6875 7.891927083333334  C 4.850961538461539 7.51953125  5.134615384615384 7.333333333333334  5.538461538461538 7.333333333333334  L 9.230769230769232 7.333333333333334  L 9.230769230769232 0.9166666666666659  C 9.230769230769232 0.6684027777777748  9.322115384615385 0.4535590277777748  9.504807692307693 0.27213541666666585  C 9.6875 0.09071180555555691  9.903846153846155 0  10.153846153846153 0  L 13.846153846153845 0  C 14.096153846153847 0  14.312500000000002 0.09071180555555691  14.495192307692307 0.27213541666666585  C 14.677884615384617 0.4535590277777748  14.76923076923077 0.6684027777777748  14.76923076923077 0.9166666666666659  L 14.76923076923077 7.333333333333334  L 18.461538461538463 7.333333333333334  Z " fill-rule="nonzero" fill="rgba(255, 255, 255, 1)" stroke="none" transform="matrix(1 0 0 1 643 236 )" class="fill" />
    <path d="M 18.1875 19.89453125  C 18.370192307692307 19.71310763888889  18.461538461538463 19.49826388888889  18.461538461538463 19.25  C 18.461538461538463 19.00173611111111  18.370192307692307 18.78689236111111  18.1875 18.60546875  C 18.004807692307693 18.42404513888889  17.78846153846154 18.333333333333336  17.538461538461537 18.333333333333336  C 17.28846153846154 18.333333333333336  17.072115384615387 18.42404513888889  16.889423076923077 18.60546875  C 16.706730769230774 18.78689236111111  16.615384615384613 19.00173611111111  16.615384615384613 19.25  C 16.615384615384613 19.49826388888889  16.706730769230774 19.71310763888889  16.889423076923077 19.89453125  C 17.072115384615387 20.07595486111111  17.28846153846154 20.166666666666664  17.538461538461537 20.166666666666664  C 17.78846153846154 20.166666666666664  18.004807692307693 20.07595486111111  18.1875 19.89453125  Z " stroke-width="0" stroke-dasharray="0" stroke="rgba(255, 255, 255, 0)" fill="none" transform="matrix(1 0 0 1 643 236 )" class="stroke" mask="url(#Clip4)" />
    <path d="M 21.879807692307693 19.89453125  C 22.0625 19.71310763888889  22.153846153846153 19.49826388888889  22.153846153846153 19.25  C 22.153846153846153 19.00173611111111  22.0625 18.78689236111111  21.879807692307693 18.60546875  C 21.697115384615387 18.42404513888889  21.480769230769234 18.333333333333336  21.23076923076923 18.333333333333336  C 20.98076923076923 18.333333333333336  20.76442307692308 18.42404513888889  20.58173076923077 18.60546875  C 20.399038461538463 18.78689236111111  20.307692307692307 19.00173611111111  20.307692307692307 19.25  C 20.307692307692307 19.49826388888889  20.399038461538463 19.71310763888889  20.58173076923077 19.89453125  C 20.76442307692308 20.07595486111111  20.98076923076923 20.166666666666664  21.23076923076923 20.166666666666664  C 21.480769230769234 20.166666666666664  21.697115384615387 20.07595486111111  21.879807692307693 19.89453125  Z " stroke-width="0" stroke-dasharray="0" stroke="rgba(255, 255, 255, 0)" fill="none" transform="matrix(1 0 0 1 643 236 )" class="stroke" mask="url(#Clip4)" />
    <path d="M 23.596153846153847 15.067708333333332  C 23.865384615384617 15.335069444444441  24 15.659722222222223  24 16.041666666666668  L 24 20.625  C 24 21.006944444444446  23.865384615384617 21.33159722222222  23.596153846153847 21.598958333333336  C 23.32692307692308 21.866319444444446  23.000000000000004 22  22.615384615384613 22  L 1.3846153846153846 22  C 1 22  0.6730769230769231 21.866319444444446  0.40384615384615385 21.598958333333336  C 0.13461538461538458 21.33159722222222  0 21.006944444444446  0 20.625  L 0 16.041666666666668  C 0 15.659722222222223  0.13461538461538458 15.335069444444441  0.40384615384615385 15.067708333333332  C 0.6730769230769231 14.800347222222223  1 14.666666666666668  1.3846153846153846 14.666666666666668  L 8.091346153846153 14.666666666666668  L 10.038461538461538 16.614583333333336  C 10.596153846153847 17.149305555555554  11.25 17.416666666666664  12 17.416666666666664  C 12.75 17.416666666666664  13.403846153846153 17.149305555555554  13.961538461538463 16.614583333333336  L 15.923076923076923 14.666666666666668  L 22.615384615384613 14.666666666666668  C 23.000000000000004 14.666666666666668  23.32692307692308 14.800347222222223  23.596153846153847 15.067708333333332  Z " stroke-width="0" stroke-dasharray="0" stroke="rgba(255, 255, 255, 0)" fill="none" transform="matrix(1 0 0 1 643 236 )" class="stroke" mask="url(#Clip4)" />
    <path d="M 18.461538461538463 7.333333333333334  C 18.865384615384613 7.333333333333334  19.149038461538463 7.51953125  19.3125 7.891927083333334  C 19.47596153846154 8.28342013888889  19.408653846153847 8.617621527777777  19.110576923076923 8.89453125  L 12.649038461538463 15.311197916666668  C 12.475961538461537 15.492621527777777  12.259615384615385 15.583333333333332  12 15.583333333333332  C 11.740384615384615 15.583333333333332  11.524038461538462 15.492621527777777  11.350961538461538 15.311197916666668  L 4.889423076923077 8.89453125  C 4.591346153846154 8.617621527777777  4.524038461538462 8.28342013888889  4.6875 7.891927083333334  C 4.850961538461539 7.51953125  5.134615384615384 7.333333333333334  5.538461538461538 7.333333333333334  L 9.230769230769232 7.333333333333334  L 9.230769230769232 0.9166666666666659  C 9.230769230769232 0.6684027777777748  9.322115384615385 0.4535590277777748  9.504807692307693 0.27213541666666585  C 9.6875 0.09071180555555691  9.903846153846155 0  10.153846153846153 0  L 13.846153846153845 0  C 14.096153846153847 0  14.312500000000002 0.09071180555555691  14.495192307692307 0.27213541666666585  C 14.677884615384617 0.4535590277777748  14.76923076923077 0.6684027777777748  14.76923076923077 0.9166666666666659  L 14.76923076923077 7.333333333333334  L 18.461538461538463 7.333333333333334  Z " stroke-width="0" stroke-dasharray="0" stroke="rgba(255, 255, 255, 0)" fill="none" transform="matrix(1 0 0 1 643 236 )" class="stroke" mask="url(#Clip4)" />
  </g>
</svg>