<?xml version="1.0" encoding="utf-8"?>
<svg version="1.1" xmlns:xlink="http://www.w3.org/1999/xlink" width="51px" height="42px" xmlns="http://www.w3.org/2000/svg">
  <defs>
    <pattern id="BGPattern" patternUnits="userSpaceOnUse" alignment="0 0" imageRepeat="None" />
    <mask fill="white" id="Clip8">
      <path d="M 0 42  L 0 0  L 51 0  L 51 42  L 0 42  Z " fill-rule="evenodd" />
    </mask>
  </defs>
  <g transform="matrix(1 0 0 1 -805 -53 )">
    <path d="M 0 42  L 0 0  L 51 0  L 51 42  L 0 42  Z " fill-rule="nonzero" fill="rgba(242, 242, 242, 1)" stroke="none" transform="matrix(1 0 0 1 805 53 )" class="fill" />
    <path d="M 0 42  L 0 0  L 51 0  L 51 42  L 0 42  Z " stroke-width="2" stroke-dasharray="0" stroke="rgba(121, 121, 121, 1)" fill="none" transform="matrix(1 0 0 1 805 53 )" class="stroke" mask="url(#Clip8)" />
    <path d="M 50.5313280712325 0.3859651178085249  L 0.4686719287674945 41.614034882191476  M 0.4686719287674945 0.3859651178085249  L 50.5313280712325 41.614034882191476  " stroke-width="1" stroke-dasharray="0" stroke="rgba(121, 121, 121, 1)" fill="none" transform="matrix(1 0 0 1 805 53 )" class="stroke" />
  </g>
</svg>